<?xml version="1.0" standalone="no"?>
<!DOCTYPE svg PUBLIC "-//W3C//DTD SVG 20010904//EN"
 "http://www.w3.org/TR/2001/REC-SVG-20010904/DTD/svg10.dtd">
<svg version="1.0" xmlns="http://www.w3.org/2000/svg"
 width="542.000000pt" height="465.000000pt" viewBox="0 0 542.000000 465.000000"
 preserveAspectRatio="xMidYMid meet">

<g transform="translate(0.000000,465.000000) scale(0.100000,-0.100000)"
fill="#000000" stroke="none">
<path d="M4149 4511 c-14 -5 -36 -14 -49 -21 -28 -15 -78 -60 -67 -60 4 0 3
-9 -3 -20 -7 -13 -21 -20 -40 -20 -38 0 -91 -46 -93 -81 -1 -15 -7 -25 -13
-22 -21 8 -73 -68 -80 -115 -5 -34 -15 -52 -45 -79 -21 -19 -37 -39 -34 -43 2
-4 -4 -15 -15 -25 -18 -16 -70 -100 -70 -112 0 -3 7 -3 14 0 10 4 13 1 9 -9
-3 -7 -9 -14 -13 -14 -12 0 -2 -181 14 -235 12 -42 12 -52 0 -61 -9 -7 -15
-43 -19 -105 -6 -84 -4 -97 14 -127 21 -33 41 -35 41 -4 0 9 -7 26 -15 36 -21
27 -19 96 4 147 11 24 18 46 15 50 -2 4 -7 46 -9 93 -4 62 -2 85 6 84 13 -3
21 18 40 107 13 61 72 194 93 207 6 4 17 8 25 8 11 0 9 -4 -5 -15 -18 -13 -17
-14 16 -13 35 1 92 -22 118 -48 7 -8 18 -14 23 -14 5 0 9 -5 9 -11 0 -7 -10
-5 -25 5 -14 9 -25 14 -25 12 0 -3 -18 1 -40 9 -36 13 -45 13 -76 -2 -40 -20
-39 -30 6 -60 35 -24 55 -30 45 -13 -3 6 4 10 17 10 13 0 33 3 44 6 16 4 23 0
27 -16 4 -14 10 -19 18 -14 9 5 10 2 6 -10 -4 -10 -7 -20 -7 -22 0 -2 -7 -4
-16 -4 -12 0 -15 -6 -11 -21 7 -26 -43 -58 -93 -60 -31 -1 -32 -2 -10 -8 23
-7 23 -8 5 -12 -11 -3 -24 -6 -29 -7 -10 0 -26 -22 -26 -35 0 -5 4 -6 9 -2 9
5 75 -26 95 -46 14 -13 64 -11 72 3 5 7 2 9 -7 6 -12 -5 -14 1 -11 23 3 24 0
29 -22 35 -33 8 -31 37 2 42 12 2 22 9 22 17 0 7 7 16 16 19 8 3 12 11 9 16
-4 6 -1 9 7 8 7 -2 12 5 12 15 -1 13 3 16 17 12 58 -16 64 -16 34 2 -25 15
-29 23 -27 51 2 17 -1 32 -6 32 -5 0 -7 11 -5 24 4 20 -2 29 -33 49 -52 33
-108 50 -150 45 -19 -2 -34 -1 -34 3 0 4 11 30 23 57 51 109 107 155 213 172
45 7 62 6 96 -10 23 -10 46 -16 50 -14 16 10 49 -8 46 -24 -2 -11 10 -23 35
-35 20 -11 50 -35 65 -55 26 -34 27 -39 25 -150 -1 -63 -4 -117 -7 -119 -2 -2
-25 3 -50 11 -25 9 -63 18 -84 21 -33 4 -40 1 -66 -30 -17 -22 -22 -33 -12
-29 9 3 17 1 17 -5 1 -6 3 -15 4 -21 1 -5 3 -13 4 -16 0 -4 8 -1 16 6 12 10
15 10 15 -2 0 -8 15 -19 33 -26 51 -18 81 -65 74 -115 -3 -23 -14 -47 -23 -54
-11 -8 -13 -13 -5 -13 12 0 -5 -25 -56 -86 -25 -28 -43 -61 -43 -77 0 -17 -67
-81 -105 -99 -50 -25 -78 -28 -133 -14 -54 15 -68 12 -29 -4 17 -8 11 -9 -25
-5 -43 6 -46 5 -41 -15 3 -11 8 -21 12 -21 3 -1 18 -3 33 -5 49 -5 83 -27 84
-54 0 -14 -2 -29 -4 -34 -3 -5 -6 -24 -7 -43 -1 -24 -13 -45 -41 -74 -21 -21
-42 -39 -48 -39 -5 0 -24 -12 -43 -26 -38 -29 -41 -60 -8 -78 11 -6 32 -19 46
-28 14 -10 29 -15 33 -11 3 3 6 0 6 -8 0 -8 13 -30 29 -49 25 -30 31 -33 45
-21 14 11 16 11 16 -3 0 -9 5 -16 10 -16 6 0 10 6 10 13 0 7 14 23 30 37 17
14 30 35 30 47 0 12 5 25 11 29 9 5 10 -1 5 -22 -5 -16 -9 -37 -11 -47 -2 -9
-6 -21 -10 -26 -3 -6 -3 -28 1 -50 5 -30 11 -41 25 -41 9 0 19 8 22 18 2 9 4
-1 3 -22 0 -21 -2 -34 -4 -27 -5 15 -22 4 -22 -15 0 -8 4 -13 9 -10 14 9 25
-54 12 -67 -8 -8 -11 -6 -11 9 -1 10 -7 30 -14 43 -10 19 -14 20 -19 8 -3 -9
-1 -18 6 -20 7 -2 12 -24 11 -55 0 -28 3 -49 8 -46 5 3 6 -16 3 -43 -8 -60 -8
-62 -1 -95 6 -24 3 -28 -26 -32 -215 -36 -360 -63 -623 -120 -213 -45 -245
-54 -252 -72 -3 -8 5 -69 17 -137 63 -340 66 -352 82 -349 13 2 18 -11 23 -60
4 -35 12 -69 17 -75 6 -7 8 -19 5 -27 -4 -11 1 -12 27 -6 17 4 42 12 54 19 16
9 32 9 60 1 63 -17 67 -15 70 38 1 26 16 130 32 231 19 117 27 188 21 194 -6
6 -12 -5 -16 -29 -16 -97 -48 -259 -53 -264 -2 -3 -2 15 2 40 4 25 18 112 31
194 13 82 27 152 32 157 4 4 116 4 248 -1 515 -19 620 -21 610 -13 -12 9 -15
21 -19 74 -2 21 0 36 4 34 16 -10 16 65 0 82 -8 10 2 2 23 -17 20 -18 37 -36
37 -39 0 -2 -9 4 -20 14 -20 18 -20 17 -22 -21 -2 -56 4 -91 19 -118 7 -13 17
-17 32 -13 11 3 21 1 21 -4 0 -5 20 -9 44 -9 44 0 64 17 50 43 -5 8 -4 9 4 2
5 -5 12 -19 14 -30 4 -18 6 -17 16 6 13 32 6 65 -15 74 -13 4 -14 3 -3 -10 7
-9 10 -18 8 -21 -7 -6 -48 50 -48 65 0 7 -7 23 -16 36 -11 16 -12 25 -5 25 6
0 14 -6 17 -14 3 -8 12 -17 20 -20 11 -4 12 -1 5 12 -4 9 -5 26 -1 37 4 11 5
26 2 34 -3 9 -1 12 6 7 8 -5 12 0 12 12 0 11 8 26 17 33 14 12 16 12 8 0 -6
-10 -4 -12 4 -7 7 5 10 14 7 22 -3 7 -1 16 4 19 6 4 10 18 10 33 0 19 3 23 9
13 7 -11 11 -10 20 7 19 35 -7 71 -27 37 -7 -13 -11 -11 -21 12 -7 15 -17 36
-22 45 -13 27 -11 32 8 17 15 -13 16 -11 10 21 -6 29 -47 103 -54 97 -4 -5
-11 -63 -12 -99 -1 -39 -16 -51 -25 -20 -3 9 -3 -1 0 -23 8 -54 35 -116 41
-92 6 25 23 21 24 -5 0 -22 1 -22 9 -3 8 18 9 18 9 2 1 -10 6 -15 11 -12 20
12 9 -11 -21 -45 -17 -19 -28 -30 -25 -23 3 6 2 14 -3 17 -5 4 -12 -2 -16 -13
-3 -10 -14 -26 -24 -35 -18 -16 -18 -15 -11 23 4 22 4 38 -1 36 -4 -3 -11 5
-14 17 -4 13 -14 38 -22 55 -17 36 -10 120 8 92 6 -10 8 -4 6 18 -1 18 -3 33
-4 33 -1 0 -14 -20 -28 -43 -26 -45 -34 -94 -13 -81 6 4 8 3 5 -3 -3 -5 3 -22
14 -39 23 -35 27 -63 5 -42 -19 19 -46 74 -46 93 0 8 -4 15 -10 15 -17 0 -11
22 18 59 15 19 29 44 32 55 3 11 11 21 18 24 8 2 10 -3 6 -15 -4 -11 4 -6 19
12 14 16 23 34 20 39 -4 5 -1 6 5 2 7 -4 13 3 17 19 3 14 8 37 12 53 7 24 8
22 11 -17 6 -75 45 -90 45 -17 -1 17 1 25 4 19 3 -7 9 -13 15 -13 16 0 0 49
-27 84 -20 26 -23 40 -18 69 9 60 35 43 40 -27 2 -22 10 -50 18 -63 12 -18 14
-31 6 -58 -5 -19 -7 -45 -3 -57 5 -21 4 -22 -11 -9 -15 12 -17 10 -17 -22 0
-68 18 -84 51 -45 l19 21 0 -35 c0 -19 3 -38 8 -42 4 -4 13 -24 19 -44 l13
-37 -4 37 c-3 21 0 38 7 41 7 2 8 10 2 23 -4 10 -7 22 -7 27 1 4 -2 7 -8 7 -5
0 -10 9 -10 20 0 11 3 20 8 20 11 0 14 150 4 164 -14 16 -31 103 -22 113 16
17 20 62 7 75 -20 21 -40 76 -31 89 5 8 3 9 -6 4 -10 -6 -12 1 -7 38 4 28 2
57 -5 72 -14 30 -5 43 16 23 17 -18 23 -48 12 -66 -17 -28 32 -106 60 -95 7 2
14 -4 17 -14 4 -17 4 -17 11 -1 5 12 -1 33 -18 62 -14 25 -26 53 -26 63 1 17
1 17 11 1 5 -10 15 -18 21 -18 6 0 4 10 -6 24 -17 26 -38 135 -28 150 3 5 0 6
-6 2 -8 -5 -12 1 -12 16 0 17 -3 19 -9 9 -16 -26 -31 0 -30 52 1 42 3 46 8 22
l7 -30 7 25 c4 14 7 40 7 58 0 20 4 31 10 27 6 -3 10 0 10 8 0 8 7 17 15 21 8
3 15 12 15 20 0 16 -57 63 -71 59 -5 -2 -9 9 -10 25 0 24 -1 25 -9 7 -7 -15
-9 -16 -9 -4 -1 9 -10 28 -21 42 -22 27 -26 42 -10 32 6 -3 10 3 10 14 0 12 7
21 15 21 8 0 15 -6 15 -12 0 -10 2 -10 8 0 6 9 12 5 20 -13 16 -35 15 -44 -3
-21 -15 19 -15 19 -15 -2 0 -18 25 -42 43 -42 9 0 -20 110 -34 127 -26 34 -54
63 -61 63 -3 0 -8 -8 -10 -17 -2 -11 -16 7 -35 48 -18 37 -38 69 -46 72 -9 3
-18 20 -22 38 -5 23 -10 28 -16 18 -6 -10 -9 -7 -9 12 0 14 -5 30 -12 37 -6 6
-13 39 -14 73 -2 34 -8 67 -14 73 -5 5 -10 15 -10 21 0 5 5 3 11 -5 8 -11 9
-7 5 20 -4 18 -10 36 -14 40 -4 3 -13 17 -21 31 -7 15 -24 32 -37 39 -13 7
-20 18 -17 23 4 7 -1 8 -12 3 -14 -5 -16 -4 -6 8 17 21 -46 54 -138 71 -83 16
-103 17 -142 6z m50 -15 c-2 -2 -24 -6 -48 -9 -29 -4 -40 -2 -30 4 13 8 88 14
78 5z m235 -149 c4 4 4 0 0 -10 -3 -9 -2 -17 4 -17 11 0 22 -23 28 -55 2 -11
10 -47 18 -80 13 -53 13 -76 0 -194 -9 -76 -11 -138 -6 -143 9 -9 26 69 38
177 7 58 7 59 15 25 4 -19 17 -79 29 -133 12 -55 28 -101 35 -103 16 -7 26
-42 14 -50 -14 -8 -10 -50 6 -64 8 -7 14 -24 14 -39 -1 -25 -2 -25 -9 4 -4 17
-8 26 -9 21 0 -5 -8 -3 -16 4 -9 8 -15 30 -15 57 0 25 -6 57 -14 71 -8 15 -18
40 -21 56 -11 52 -25 8 -23 -73 1 -53 4 -67 10 -51 5 13 11 21 13 18 3 -3 -1
-19 -8 -37 -15 -35 -26 -31 -28 8 l-1 26 -8 -25 c-4 -14 -8 -42 -9 -62 -1 -21
-5 -38 -11 -38 -15 0 -23 47 -17 103 3 33 2 45 -3 32 -5 -11 -9 -44 -9 -73 -1
-51 -34 -136 -43 -110 -11 33 -7 111 11 198 17 83 18 98 5 122 -16 31 -20 93
-4 68 5 -8 10 -26 10 -39 0 -16 4 -21 9 -15 5 5 12 54 16 108 3 55 9 104 12
109 7 11 -28 147 -39 147 -11 0 -38 56 -31 64 3 3 11 1 18 -4 7 -5 15 -7 19
-3z m9 -241 c-1 -29 -8 -64 -18 -81 l-17 -30 8 35 c5 19 8 63 9 97 0 42 3 56
9 46 5 -9 9 -39 9 -67z m147 -127 c0 -5 -4 -9 -10 -9 -5 0 -10 7 -10 16 0 8 5
12 10 9 6 -3 10 -10 10 -16z m-365 -59 c-3 -5 -11 -10 -16 -10 -6 0 -7 5 -4
10 3 6 11 10 16 10 6 0 7 -4 4 -10z m129 -30 c16 -15 17 -22 7 -34 -10 -12
-19 -10 -67 17 -44 26 -51 33 -37 39 27 11 75 0 97 -22z m46 -62 c0 -5 -4 -8
-10 -8 -5 0 -10 10 -10 23 0 18 2 19 10 7 5 -8 10 -18 10 -22z m150 -31 c0
-10 -4 -15 -10 -12 -5 3 -10 18 -10 33 0 21 2 24 10 12 5 -8 10 -23 10 -33z
m-7 -220 c-5 -8 34 -47 48 -47 5 0 13 18 19 40 6 22 12 40 13 40 1 0 1 -26 0
-57 -1 -32 -2 -66 -3 -75 0 -10 -4 -18 -10 -18 -5 0 -7 7 -4 15 4 8 1 15 -5
15 -6 0 -11 -6 -12 -12 0 -10 -2 -10 -6 0 -3 7 -16 18 -30 23 -16 6 -23 15
-20 23 3 8 -1 20 -9 26 -14 13 -19 61 -7 74 9 8 33 -36 26 -47z m44 -19 c-3
-8 -6 -5 -6 6 -1 11 2 17 5 13 3 -3 4 -12 1 -19z m63 -11 c0 -5 -4 -5 -10 -2
-5 3 -10 14 -10 23 0 15 2 15 10 2 5 -8 10 -19 10 -23z m81 -20 c-10 -9 -11
-8 -5 6 3 10 9 15 12 12 3 -3 0 -11 -7 -18z m-270 -96 l-4 -25 -9 23 c-4 13
-5 40 -1 60 l7 36 6 -35 c3 -19 4 -46 1 -59z m141 -27 c-5 -45 -4 -46 17 -34
23 12 23 11 14 -47 -4 -32 -7 -83 -6 -113 l1 -55 -13 37 c-8 21 -12 59 -9 85
4 43 3 45 -10 27 -12 -15 -17 -16 -27 -7 -10 10 -9 25 6 75 28 95 35 104 27
32z m79 -31 c-17 -61 -14 -93 14 -119 15 -14 27 -39 31 -66 6 -39 5 -42 -9
-28 -9 8 -18 28 -21 44 -6 32 -12 41 -29 41 -17 0 -14 103 3 142 19 42 24 35
11 -14z m-211 -168 c0 -28 -28 -105 -43 -120 -7 -7 -8 -6 -3 2 4 7 0 37 -7 67
-9 32 -11 59 -6 67 5 8 9 10 9 6 0 -4 8 -4 17 2 23 12 33 5 33 -24z m119 -18
c11 -18 19 -47 19 -65 -2 -60 -12 -42 -45 81 -7 26 3 20 26 -16z m-40 -24 c0
-16 -3 -22 -6 -15 -2 6 -9 10 -14 6 -10 -6 -12 19 -2 29 14 14 23 6 22 -20z
m-154 -3 c3 -5 1 -10 -4 -10 -6 0 -11 5 -11 10 0 6 2 10 4 10 3 0 8 -4 11 -10z
m-275 -66 c0 -21 -4 -33 -10 -29 -5 3 -10 19 -10 36 0 16 5 29 10 29 6 0 10
-16 10 -36z m430 -9 c4 3 19 -10 33 -28 21 -28 24 -39 17 -73 -4 -21 -13 -52
-19 -68 -15 -37 -8 -56 17 -49 12 3 22 16 26 34 6 32 30 31 39 -2 3 -10 1 -17
-3 -14 -25 16 -71 -82 -56 -120 5 -14 -15 -21 -53 -16 -7 2 -10 -2 -6 -8 3 -6
2 -11 -3 -11 -9 0 -32 43 -32 60 0 6 5 10 10 10 6 0 10 -7 10 -15 0 -8 6 -15
14 -15 11 0 12 10 5 47 -5 26 -7 55 -4 64 3 9 -2 24 -11 33 -14 14 -14 21 -4
46 16 38 16 80 1 89 -7 5 -9 19 -4 42 6 27 8 30 11 11 2 -12 7 -20 12 -17z
m145 -41 c-21 -16 -35 -10 -17 8 7 7 12 21 13 33 0 18 1 18 12 -4 9 -19 8 -26
-8 -37z m-292 6 c-3 -11 -10 -23 -16 -27 -5 -3 -8 -2 -5 3 3 5 8 17 11 27 9
24 16 22 10 -3z m97 -35 c0 -5 -5 -3 -10 5 -5 8 -10 20 -10 25 0 6 5 3 10 -5
5 -8 10 -19 10 -25z m196 -17 c-11 -15 -16 -18 -16 -7 0 16 21 42 28 34 2 -2
-3 -14 -12 -27z m-261 -18 c3 -11 2 -28 -4 -37 -9 -16 -11 -16 -19 7 -10 26
-6 50 8 50 5 0 11 -9 15 -20z m-56 -84 c0 -16 -2 -27 -5 -23 -10 10 -23 91
-16 102 7 11 19 -34 21 -79z m114 -109 c14 -32 22 -55 17 -52 -6 4 -10 -1 -10
-9 0 -23 -16 -19 -34 9 -20 30 -20 39 -1 31 13 -4 13 -2 5 14 -9 17 -15 79 -6
69 1 -2 15 -30 29 -62z m274 -79 c-2 -13 -4 -5 -4 17 -1 22 1 32 4 23 2 -10 2
-28 0 -40z m20 0 c-2 -13 -4 -5 -4 17 -1 22 1 32 4 23 2 -10 2 -28 0 -40z
m-497 -11 c0 -5 -4 -5 -10 -2 -5 3 -10 14 -10 23 0 15 2 15 10 2 5 -8 10 -19
10 -23z m101 -156 c-6 -11 -11 -32 -11 -48 -1 -25 -2 -26 -11 -10 -13 22 -3
90 12 82 5 -4 9 0 10 7 0 9 2 10 5 1 3 -7 1 -21 -5 -32z m43 -17 c-31 -58 -39
-68 -29 -34 9 30 46 93 51 87 2 -2 -8 -26 -22 -53z m40 -22 c-4 -15 -11 -31
-15 -36 -11 -12 -12 -29 -1 -22 4 2 9 -5 9 -17 2 -20 1 -20 -8 -4 -6 9 -15 17
-20 17 -6 0 -8 -4 -5 -9 3 -5 -1 -11 -9 -15 -17 -6 -21 -36 -4 -36 5 0 8 -4 5
-9 -3 -5 1 -25 9 -45 19 -45 19 -69 0 -36 -27 48 -34 69 -39 122 -4 35 -3 43
2 23 l8 -30 17 33 c10 17 15 32 12 32 -4 0 3 13 14 29 11 15 17 32 13 36 -4 5
-1 5 6 1 7 -5 10 -17 6 -34z m91 -290 c-8 -15 -17 -35 -21 -44 -6 -18 -24 -25
-24 -9 0 4 9 20 21 35 11 14 21 43 22 63 2 56 -12 123 -25 123 -6 0 -3 8 8 18
19 18 19 17 27 -70 6 -72 4 -95 -8 -116z m-277 157 c2 -12 -27 -22 -145 -48
-156 -34 -417 -75 -543 -86 -41 -3 -86 -8 -100 -11 -17 -4 -22 -2 -15 5 9 9
87 20 365 52 99 12 237 46 330 82 72 28 103 30 108 6z m233 -31 c8 -15 8 -18
0 -14 -6 4 -16 16 -22 28 -8 15 -8 18 0 14 6 -4 16 -16 22 -28z m74 -137 c3
-5 1 -12 -5 -16 -5 -3 -10 1 -10 9 0 18 6 21 15 7z"/>
<path d="M4451 3874 c0 -11 3 -14 6 -6 3 7 2 16 -1 19 -3 4 -6 -2 -5 -13z"/>
<path d="M4435 3789 c-10 -56 -1 -59 12 -4 6 25 7 45 2 45 -4 0 -10 -18 -14
-41z"/>
<path d="M4575 2972 c-5 -4 -12 -16 -13 -27 -4 -23 0 -20 17 13 12 24 12 26
-4 14z"/>
<path d="M1544 4411 c-39 -18 -71 -53 -89 -96 -4 -11 -11 -182 -14 -380 -6
-347 -7 -362 -29 -410 -44 -97 -104 -135 -212 -135 -82 0 -132 27 -176 92 -18
26 -33 45 -35 43 -2 -2 -5 6 -5 18 -1 12 -7 51 -13 87 -6 36 -11 116 -11 178
0 128 -9 155 -65 198 -73 55 -182 35 -235 -44 -24 -36 -25 -41 -24 -212 1
-154 4 -185 26 -256 29 -97 95 -217 152 -275 151 -154 386 -206 586 -130 66
25 185 105 215 146 53 68 114 189 136 268 23 79 24 95 24 442 0 401 1 397 -70
451 -46 35 -107 41 -161 15z"/>
<path d="M4120 3865 c0 -8 2 -15 4 -15 2 0 6 7 10 15 3 8 1 15 -4 15 -6 0 -10
-7 -10 -15z"/>
<path d="M4111 3814 c0 -11 3 -14 6 -6 3 7 2 16 -1 19 -3 4 -6 -2 -5 -13z"/>
<path d="M4135 3810 c-3 -5 -1 -10 4 -10 6 0 11 5 11 10 0 6 -2 10 -4 10 -3 0
-8 -4 -11 -10z"/>
<path d="M4121 3729 c-1 -14 2 -29 6 -33 10 -9 33 -78 33 -98 0 -20 -3 -22
-28 -9 -9 5 -50 21 -90 37 -40 15 -83 36 -94 46 -22 19 -64 25 -53 8 3 -5 0
-10 -8 -10 -8 0 -20 14 -27 30 -16 38 -34 34 -38 -8 -3 -31 28 -89 41 -76 3 3
20 -2 39 -12 29 -15 31 -15 20 -1 -8 9 -22 19 -33 22 -16 5 -29 35 -15 35 21
0 197 -65 219 -81 16 -11 35 -18 42 -15 8 3 17 1 20 -4 4 -7 13 -6 25 0 16 8
18 18 14 50 -6 38 -5 40 23 41 21 1 23 3 8 6 -30 7 -85 52 -95 77 -8 20 -9 20
-9 -5z"/>
<path d="M4046 3721 c-3 -4 6 -13 19 -19 27 -12 33 -4 13 16 -14 14 -25 15
-32 3z"/>
<path d="M3880 3570 c0 -14 47 -43 61 -38 7 2 -4 14 -24 26 -21 12 -37 17 -37
12z"/>
<path d="M3717 3483 c-4 -3 -7 -11 -7 -17 0 -6 5 -5 12 2 6 6 9 14 7 17 -3 3
-9 2 -12 -2z"/>
<path d="M4832 3429 c-15 -23 -15 -29 -2 -29 6 0 10 8 11 18 0 14 2 14 9 -3 5
-11 11 -29 14 -39 4 -10 9 -16 12 -13 7 7 -14 75 -25 81 -4 3 -12 -4 -19 -15z"/>
<path d="M3592 3145 c-32 -14 -169 -55 -249 -75 -53 -13 -97 -50 -139 -115
-33 -53 -85 -188 -81 -215 3 -20 -25 -211 -55 -375 -20 -116 -26 -172 -33
-325 -5 -123 -12 -230 -19 -280 -2 -14 -7 -52 -12 -85 -7 -55 -27 -90 -46 -79
-9 6 -29 -32 -27 -49 5 -44 -10 -47 -89 -17 -70 27 -75 26 -56 -12 19 -39 52
-67 77 -68 9 0 36 -9 60 -19 73 -33 87 -35 87 -11 0 13 9 24 26 30 38 15 40
13 36 -25 -3 -27 0 -36 14 -42 10 -4 19 -2 22 5 2 7 8 10 13 6 5 -3 9 2 9 10
0 8 -4 18 -10 21 -5 3 -10 23 -10 43 0 20 -9 85 -20 143 -13 73 -21 173 -24
320 -6 250 1 296 61 391 22 35 57 95 78 133 44 84 83 137 95 130 4 -2 23 35
41 84 19 49 37 87 42 84 4 -2 5 -8 2 -13 -3 -5 -1 -11 4 -14 9 -6 21 40 21 82
0 29 15 20 23 -13 3 -13 6 -8 7 15 4 41 5 50 13 70 3 8 8 26 11 40 5 22 11 26
47 27 30 2 50 9 69 28 26 25 29 33 31 89 0 16 7 42 15 57 23 45 19 47 -34 24z"/>
<path d="M3712 3020 c0 -19 2 -27 5 -17 2 9 2 25 0 35 -3 9 -5 1 -5 -18z"/>
<path d="M4825 3001 c-3 -5 -1 -12 5 -16 5 -3 10 1 10 9 0 18 -6 21 -15 7z"/>
<path d="M4918 2865 c2 -14 8 -22 13 -19 5 3 5 14 -1 25 -14 26 -18 24 -12 -6z"/>
<path d="M430 2766 c0 -44 4 -76 10 -76 6 0 10 30 10 69 0 39 -4 73 -10 76 -6
4 -10 -22 -10 -69z"/>
<path d="M640 2830 c-7 -4 -10 -31 -8 -71 l3 -64 38 -3 c42 -4 52 15 10 20
-35 4 -44 35 -11 40 28 4 27 22 -2 26 -33 5 -24 32 11 32 20 0 29 4 27 13 -5
13 -50 18 -68 7z"/>
<path d="M778 2832 c-28 -3 -28 -4 -27 -75 1 -47 4 -62 8 -43 8 41 28 43 48 7
25 -44 45 -43 22 1 -8 14 -8 23 0 31 6 6 11 23 11 39 0 31 -22 45 -62 40z m42
-43 c0 -14 -7 -19 -29 -19 -21 0 -28 5 -27 18 0 9 5 20 10 23 15 12 46 -3 46
-22z"/>
<path d="M913 2833 c-18 -4 -23 -11 -23 -38 0 -34 13 -45 51 -45 12 0 19 -7
19 -20 0 -16 -7 -20 -30 -20 -16 0 -30 5 -30 10 0 6 -4 10 -10 10 -5 0 -10 -7
-10 -15 0 -18 41 -29 75 -21 20 5 25 13 25 36 0 31 -22 50 -55 47 -15 -2 -19
3 -17 18 5 27 5 27 37 15 33 -12 43 -7 25 15 -13 15 -17 16 -57 8z"/>
<path d="M1088 2834 c-5 -4 -8 -38 -8 -76 l0 -68 43 0 c24 0 48 5 55 12 14 14
16 96 3 116 -9 15 -82 28 -93 16z m80 -73 l3 -52 -33 3 c-32 3 -33 5 -36 50
-3 42 -1 47 20 51 39 7 43 2 46 -52z"/>
<path d="M1375 2828 c-4 -9 -5 -42 -3 -74 l3 -59 38 -3 c21 -2 45 2 53 9 15
13 19 95 5 117 -13 21 -89 28 -96 10z m83 -69 c-3 -42 -5 -44 -35 -47 l-33 -3
0 50 c0 47 2 50 28 53 38 5 44 -3 40 -53z"/>
<path d="M3988 2833 c7 -3 16 -2 19 1 4 3 -2 6 -13 5 -11 0 -14 -3 -6 -6z"/>
<path d="M130 2765 c0 -61 2 -65 25 -71 14 -3 36 -3 50 0 23 6 25 10 25 71 0
37 -4 65 -10 65 -6 0 -10 -27 -10 -61 l0 -60 -32 3 -33 3 1 58 c1 31 -2 57 -7
57 -5 0 -9 -29 -9 -65z"/>
<path d="M270 2760 c0 -40 4 -70 10 -70 6 0 10 20 10 45 0 25 4 45 9 45 5 0
22 -20 38 -45 15 -25 31 -45 36 -45 4 0 7 32 7 70 0 78 -17 96 -22 24 l-3 -46
-32 46 c-18 25 -37 46 -43 46 -6 0 -10 -29 -10 -70z"/>
<path d="M495 2788 c35 -115 46 -121 76 -43 29 76 31 85 20 85 -5 0 -17 -22
-26 -50 -9 -27 -20 -50 -25 -50 -5 0 -16 23 -25 50 -20 61 -38 67 -20 8z"/>
<path d="M1020 2760 c0 -40 4 -70 10 -70 6 0 10 30 10 70 0 40 -4 70 -10 70
-6 0 -10 -30 -10 -70z"/>
<path d="M1259 2803 c-36 -89 -43 -143 -12 -94 7 11 20 18 30 16 10 -2 24 -4
31 -4 6 -1 12 -8 12 -16 0 -8 5 -15 11 -15 6 0 9 6 6 13 -2 6 -13 38 -23 70
-19 62 -38 73 -55 30z m35 -25 c9 -35 8 -38 -14 -38 -11 0 -20 3 -20 8 0 19
13 52 20 52 4 0 10 -10 14 -22z"/>
<path d="M4755 2475 c-11 -27 -32 -61 -47 -75 -23 -22 -25 -27 -14 -43 12 -16
14 -15 26 13 7 17 15 29 17 26 3 -2 0 -12 -5 -22 -7 -12 -5 -30 5 -58 8 -23
19 -66 23 -96 l7 -55 2 47 c0 26 7 53 14 60 8 7 12 22 11 33 -6 35 -6 59 1 82
5 16 2 23 -14 28 -24 7 -26 17 -10 46 5 11 9 30 7 42 -3 17 -8 10 -23 -28z"/>
<path d="M4790 2495 c0 -16 -3 -41 -7 -54 -4 -18 -2 -22 8 -19 15 5 21 64 8
88 -6 11 -9 6 -9 -15z"/>
<path d="M4830 2300 c0 -5 5 -10 11 -10 5 0 7 5 4 10 -3 6 -8 10 -11 10 -2 0
-4 -4 -4 -10z"/>
<path d="M4710 2246 c0 -9 5 -16 10 -16 6 0 10 4 10 9 0 6 -4 13 -10 16 -5 3
-10 -1 -10 -9z"/>
<path d="M4791 2244 c0 -11 3 -14 6 -6 3 7 2 16 -1 19 -3 4 -6 -2 -5 -13z"/>
<path d="M4733 2220 c-6 -15 -7 -26 -1 -29 15 -5 20 5 16 31 l-5 23 -10 -25z"/>
<path d="M4760 2129 c0 -5 5 -7 10 -4 6 3 10 8 10 11 0 2 -4 4 -10 4 -5 0 -10
-5 -10 -11z"/>
<path d="M3635 2091 c-3 -5 -1 -12 5 -16 5 -3 10 1 10 9 0 18 -6 21 -15 7z"/>
<path d="M4777 2093 c-4 -3 -3 -11 2 -17 5 -6 19 -34 30 -61 17 -43 20 -46 20
-22 1 15 -8 46 -19 67 -22 42 -23 44 -33 33z"/>
<path d="M3196 1745 c11 -90 16 -115 24 -110 4 2 10 -14 13 -38 6 -57 10 -71
22 -79 7 -5 6 -13 0 -25 -6 -10 -8 -31 -4 -48 4 -16 7 -22 8 -13 1 18 29 14
43 -6 15 -21 7 9 -8 34 -9 15 -13 18 -9 6 4 -15 3 -17 -9 -7 -12 10 -12 16 0
39 16 31 19 122 4 122 -5 0 -10 7 -10 15 0 8 -4 15 -10 15 -5 0 -10 9 -10 20
0 11 -5 20 -11 20 -5 0 -7 4 -4 10 3 5 -1 20 -9 32 -9 12 -16 18 -17 13 -1 -6
-5 1 -10 15 -6 19 -7 16 -3 -15z"/>
<path d="M3301 1694 c0 -11 3 -14 6 -6 3 7 2 16 -1 19 -3 4 -6 -2 -5 -13z"/>
<path d="M3308 1526 c-3 -14 -1 -23 3 -20 7 4 28 -31 33 -56 1 -3 7 -14 14
-25 13 -19 13 -19 8 5 -7 37 -31 99 -43 111 -7 7 -12 3 -15 -15z"/>
<path d="M3380 1539 c-12 -9 -11 -10 8 -6 21 5 32 -8 13 -15 -6 -1 -2 -21 8
-43 9 -22 19 -38 22 -37 2 2 21 1 43 -3 23 -5 41 -4 45 2 5 8 77 21 126 23 21
0 -45 28 -84 35 -22 4 -56 15 -75 25 -20 10 -36 13 -36 7 0 -5 -8 -3 -18 6
-22 20 -31 21 -52 6z"/>
<path d="M4716 1525 c-7 -28 -1 -45 15 -45 6 0 7 6 2 13 -4 6 -6 22 -4 35 3
30 -5 28 -13 -3z"/>
<path d="M3890 1471 c0 -6 5 -11 11 -11 5 0 7 -5 4 -10 -4 -6 -1 -9 6 -8 6 2
14 -3 17 -11 3 -9 0 -11 -9 -6 -8 5 -11 4 -6 -1 5 -5 10 -7 13 -4 2 3 11 -5
19 -18 14 -19 73 -52 93 -52 3 0 -9 15 -27 34 -20 20 -30 39 -26 46 5 9 2 10
-13 6 -13 -5 -30 2 -51 20 -17 14 -31 21 -31 15z"/>
<path d="M4697 1466 c-12 -32 -8 -66 9 -66 8 0 12 5 9 10 -4 6 -2 17 4 24 8 9
7 18 -3 31 -12 17 -13 17 -19 1z"/>
<path d="M3945 1450 c3 -5 10 -10 16 -10 5 0 9 5 9 10 0 6 -7 10 -16 10 -8 0
-12 -4 -9 -10z"/>
<path d="M3260 1410 c-14 -11 -20 -20 -14 -20 14 0 50 27 44 33 -3 3 -16 -3
-30 -13z"/>
<path d="M3505 1413 c-26 -7 -72 -43 -55 -43 8 0 21 -7 31 -16 21 -19 158 -66
170 -58 19 11 8 45 -18 57 -30 13 -43 22 -74 50 -20 18 -21 18 -54 10z"/>
<path d="M5215 1395 c-33 -7 -76 -20 -95 -29 l-35 -15 40 -2 c68 -4 79 -6 105
-17 21 -8 26 -7 34 12 17 45 24 51 57 57 l34 6 -40 1 c-22 0 -67 -6 -100 -13z"/>
<path d="M3315 1390 c-3 -5 3 -17 15 -27 11 -10 20 -27 20 -38 0 -12 6 -30 14
-41 14 -17 14 -16 7 16 -8 35 -38 100 -46 100 -2 0 -7 -4 -10 -10z"/>
<path d="M3175 1370 c-18 -8 -17 -9 8 -9 16 -1 26 3 22 9 -3 6 -7 10 -8 9 -1
0 -11 -4 -22 -9z"/>
<path d="M3400 1372 c0 -4 5 -13 12 -20 9 -9 7 -17 -8 -33 -19 -22 -19 -22 4
-16 15 3 22 1 19 -6 -3 -7 -10 -11 -16 -9 -16 3 -14 -23 3 -38 8 -6 12 -18 9
-26 -5 -14 10 -18 50 -15 9 1 17 -3 17 -9 0 -15 -33 -26 -38 -12 -2 7 -8 12
-14 12 -5 0 4 -16 21 -35 48 -55 37 -55 -18 -1 -45 44 -49 47 -56 27 -3 -11
-1 -29 5 -41 12 -23 -1 -27 -19 -6 -6 7 -23 36 -36 62 -14 27 -25 43 -25 37 0
-7 -6 -13 -13 -13 -8 0 -19 -11 -25 -25 -6 -14 -16 -25 -21 -25 -5 0 -9 -10
-10 -22 -5 -83 -8 -99 -23 -114 -15 -15 -15 -20 -2 -46 8 -15 21 -28 30 -28 8
0 12 -4 9 -10 -3 -5 3 -10 15 -10 11 0 23 -6 26 -14 3 -8 12 -12 21 -9 12 5
14 1 8 -16 -6 -20 -5 -21 12 -11 15 10 32 7 87 -11 69 -24 85 -41 45 -47 -27
-5 -137 25 -164 44 -30 21 -34 17 -24 -21 6 -19 8 -39 5 -43 -2 -4 2 -16 10
-27 13 -18 18 -18 72 -6 57 13 106 21 152 24 28 3 34 28 10 39 -8 4 19 5 60 1
41 -3 76 -7 78 -8 2 -2 18 1 35 6 20 6 54 5 92 -2 94 -17 117 -18 169 -3 54
15 152 17 231 4 28 -4 86 -13 130 -19 44 -7 88 -16 97 -22 10 -5 23 -9 28 -9
6 0 31 -9 55 -20 51 -23 48 -13 70 -210 9 -80 18 -160 21 -177 5 -35 20 -41
55 -23 11 6 58 15 105 21 48 5 100 18 122 29 20 11 42 20 48 20 21 0 64 41 84
79 22 44 67 214 78 301 9 60 9 60 -17 60 -20 0 -22 3 -11 9 8 6 27 7 42 4 17
-3 28 -1 28 6 0 6 -10 11 -23 11 -12 0 -54 7 -92 15 -39 8 -93 15 -121 15 -38
0 -55 5 -69 20 -10 11 -31 20 -47 20 -15 0 -28 5 -28 11 0 7 -9 9 -21 6 -11
-3 -45 3 -76 14 -31 10 -67 19 -80 19 -12 0 -23 5 -23 11 0 6 -17 10 -42 8
-24 -1 -50 0 -58 3 -8 3 -46 14 -85 24 -38 9 -77 21 -85 25 -45 22 -115 34
-195 34 -79 0 -93 3 -111 21 -12 12 -40 25 -64 29 -24 4 -50 14 -58 21 -7 8
-21 14 -30 14 -16 -1 -16 -2 1 -14 9 -7 17 -18 17 -24 0 -6 7 -9 15 -6 8 4 15
1 15 -6 0 -15 -48 -5 -71 16 -8 8 -20 14 -26 14 -6 0 -13 6 -16 14 -3 8 -30
21 -61 30 -30 9 -58 20 -61 26 -3 5 -27 12 -53 16 -49 6 -111 37 -149 73 -24
22 -33 26 -33 13z m120 -192 c0 -5 -2 -10 -4 -10 -3 0 -8 5 -11 10 -3 6 -1 10
4 10 6 0 11 -4 11 -10z m-200 -22 c0 8 12 2 30 -15 17 -15 30 -34 30 -41 0 -7
5 -10 10 -7 6 3 10 -1 10 -9 0 -9 5 -16 11 -16 5 0 8 -4 5 -9 -15 -24 79 -38
114 -16 9 5 15 4 18 -3 2 -7 10 -12 18 -12 17 0 19 -20 2 -21 -7 0 0 -6 16
-13 52 -23 13 -24 -76 -1 -48 12 -99 30 -115 40 -57 38 -113 90 -113 106 0 21
22 31 32 15 5 -7 8 -7 8 2z m121 -45 c13 -17 13 -17 -6 -3 -11 8 -22 16 -24
17 -2 2 0 3 6 3 6 0 17 -8 24 -17z m166 11 c-3 -3 -12 -4 -19 -1 -8 3 -5 6 6
6 11 1 17 -2 13 -5z m383 -29 c16 2 32 0 35 -6 4 -5 -1 -9 -9 -9 -22 0 -20
-20 2 -21 13 0 12 -2 -5 -9 -36 -15 -27 -25 20 -22 39 3 43 1 59 -33 15 -30
15 -35 3 -35 -9 0 -15 -9 -15 -22 0 -17 -3 -19 -12 -10 -20 20 -30 13 -26 -18
l5 -30 -244 5 c-225 4 -330 16 -318 35 2 4 -6 5 -19 3 -15 -3 -52 13 -112 48
-107 64 -120 75 -98 83 22 8 96 -12 89 -24 -4 -6 -2 -10 2 -10 5 0 14 -9 21
-21 11 -17 11 -20 0 -14 -7 3 -4 -1 6 -9 24 -20 35 -20 42 -2 6 16 52 9 129
-18 28 -10 57 -20 65 -23 13 -4 13 -5 0 -14 -11 -7 -6 -8 15 -3 50 10 57 14
52 28 -3 7 0 19 6 25 9 9 8 11 -5 6 -10 -4 -26 -4 -35 -1 -15 6 -15 8 -3 16 8
6 25 10 36 10 14 0 24 8 27 21 3 12 10 18 17 14 6 -4 9 -14 5 -24 -5 -13 -4
-14 7 -3 9 9 10 17 2 30 -8 13 -6 21 8 35 10 9 18 13 18 7 0 -5 18 -10 40 -10
22 0 40 -4 40 -10 0 -5 6 -10 13 -10 8 0 13 10 13 23 -1 15 4 21 16 19 9 -1
19 6 23 18 6 20 7 20 31 1 16 -12 36 -18 54 -16z m-505 -6 c4 -6 13 -8 19 -6
7 3 13 -1 13 -8 0 -10 -5 -11 -16 -5 -35 20 -46 30 -34 30 6 0 15 -5 18 -11z
m125 -9 c0 -5 -8 -10 -17 -10 -15 0 -16 2 -3 10 19 12 20 12 20 0z m916 -169
c-8 -12 -46 -21 -46 -11 0 5 8 11 18 13 29 8 33 7 28 -2z m197 -18 c-7 -2 -19
-2 -25 0 -7 3 -2 5 12 5 14 0 19 -2 13 -5z m60 0 c-7 -2 -19 -2 -25 0 -7 3 -2
5 12 5 14 0 19 -2 13 -5z m90 0 c-7 -2 -19 -2 -25 0 -7 3 -2 5 12 5 14 0 19
-2 13 -5z m165 -7 c3 -3 -24 -6 -61 -6 -36 0 -68 4 -72 9 -6 10 123 7 133 -3z
m-361 -228 c-2 -24 -4 -7 -4 37 0 44 2 63 4 43 2 -21 2 -57 0 -80z"/>
<path d="M3983 945 c-9 -20 -8 -25 3 -25 8 0 14 -7 14 -15 0 -8 5 -15 10 -15
7 0 7 7 0 20 -6 12 -8 30 -5 40 9 29 -8 24 -22 -5z"/>
<path d="M4207 1328 c2 -5 10 -8 18 -8 8 0 16 3 18 8 3 4 -5 7 -18 7 -13 0
-21 -3 -18 -7z"/>
<path d="M4265 1331 c3 -6 -11 -13 -32 -16 -69 -11 -69 -13 4 -14 39 0 79 -4
89 -8 16 -6 17 -5 4 9 -8 9 -18 14 -21 12 -4 -2 -9 3 -13 11 -3 8 -13 15 -21
15 -9 0 -14 -4 -10 -9z"/>
<path d="M3310 1290 c8 -5 20 -10 25 -10 6 0 3 5 -5 10 -8 5 -19 10 -25 10 -5
0 -3 -5 5 -10z"/>
<path d="M3070 1050 c0 -5 0 -12 0 -15 0 -3 -10 -16 -22 -30 -12 -13 -22 -37
-24 -52 -1 -16 0 -22 3 -15 3 6 9 10 13 7 5 -3 17 2 27 12 10 10 30 26 44 35
24 16 27 16 45 0 10 -9 1 2 -21 26 -37 40 -65 54 -65 32z"/>
<path d="M5150 890 c-9 -6 -10 -10 -3 -10 6 0 15 5 18 10 8 12 4 12 -15 0z"/>
<path d="M2883 625 c-3 -9 3 -25 13 -37 19 -21 19 -21 -2 -10 -20 11 -22 8
-29 -46 -18 -140 -23 -171 -38 -232 -18 -70 -57 -268 -57 -288 0 -9 217 -12
950 -12 787 0 950 2 950 13 0 8 -9 49 -20 92 -11 43 -20 82 -20 86 0 4 15 9
33 11 32 3 12 12 -273 114 -66 23 -232 47 -410 59 -164 11 -398 35 -538 56
-144 21 -219 47 -415 146 -125 62 -136 66 -144 48z m1191 -316 c8 -8 5 -10
-11 -5 -12 4 -31 9 -44 11 -39 8 -35 18 5 12 22 -4 44 -11 50 -18z"/>
</g>
</svg>
